<?xml version="1.0" encoding="UTF-8" standalone="no"?>
<svg version="1.1">
<g
   id="g50"><path
     d="m 524.2,200 c 27.70082,31.19726 87.07565,44.19027 125.625,69.55 95.05848,49.72138 195.72957,91.01178 302.07031,108.21875 C 1012.7156,391.1964 967.6435,479.56381 919.9,475.1 839.41478,463.2772 766.40431,422.39324 695.54195,384.24248 638.07063,350.97143 580.66993,317.55069 523.9,283.1 c -5.8101,46.05562 15.67638,92.40659 4.96543,136.86074 -4.28542,20.20617 -35.41264,41.68125 1.19609,32.66699 74.62111,-0.50774 153.06089,-16.88644 224.8711,10.06954 57.63069,12.88656 74.13194,70.10478 63.22343,122.17871 C 816.57962,642.44485 809.80067,699.75191 799.6,756.4 c 45.31238,44.81566 -37.0181,66.06994 -70.39063,45.9 -82.52093,-6.48985 -165.49003,4.37612 -248.10396,6.82439 C 411.76862,813.75736 341.52403,819.36479 274.2,836.2 230.9815,871.06116 177.58351,821.65968 187.30735,773.34407 176.84268,686.99763 177.1079,599.85054 174.9125,513.1 154.73668,446.29626 242.53862,482.57315 275.20995,480.92773 334.27171,472.22257 393.505,464.64457 452.9,458.6 422.5358,429.08765 426.03872,379.67501 425.3875,339.90313 428.59138,309.98652 431.13156,280.98845 396.15361,309.31511 285.96972,365.45184 185.89746,438.82087 88.7125,514.65 36.729888,536.26716 -17.464089,463.58941 24.1375,420.625 61.845769,396.80475 113.52239,383.98378 152.99297,356.11934 242.91672,307.09283 330.70714,252.80892 426.9,216.6 407.0104,192.71605 339.77171,219.81547 302.31229,215.76854 236.77286,220.2366 171.92223,230.32428 107.19844,240.59375 68.854888,252.19393 8.6685635,155.72911 70.422412,158.36069 189.26313,146.88929 308.2084,136.13336 427.5,130.7 434.23188,94.473084 399.54506,44.819929 438.36738,20.662891 478.44256,2.4439733 554.76977,31.343026 530.2,84.5 c -12.50035,31.59253 -4.48617,50.41616 31.49685,39.03696 C 650.07322,117.87461 739.24341,118.92034 826.7,103.5 c 37.27861,10.25584 112.23753,33.85772 93.15293,84.52266 -30.09309,30.63829 -76.33418,3.9219 -113.30918,5.22422 C 712.40043,191.03024 618.25499,196.63595 524.2,200 Z m 16,748.8 C 391.58203,954.7865 242.38719,961.14823 95.2875,983.75 54.141384,1000.1803 1.067106,930.65177 29.5,903.9 c 264.56665,-25.19305 530.35993,-30.95092 795.7,-43 49.00358,-14.74562 100.78849,-9.6663 140.58437,24.58906 57.52833,31.39792 -4.49955,84.78746 -48.44531,61.68906 -78.7278,-13.47514 -159.26524,-2.95719 -238.673,-3.49553 C 632.49974,945.07281 586.3445,946.81709 540.2,948.8 Z M 717.6,534.5 C 692.75229,501.98298 642.08701,518.52271 605.88562,515.5499 493.51275,520.14149 380.59724,530.55415 271,556.4 c -2.20969,33.01485 -7.07994,73.17951 36.6875,59.10313 133.18843,-10.61547 266.38494,-21.56746 399.675,-30.52813 18.16474,-3.69178 5.99312,-35.67857 10.2375,-50.475 z m -333.1,213 c 104.11901,-8.21367 208.79713,-10.64098 312.6,-22 3.60269,-33.85468 31.70896,-88.16675 -26.4,-72.3 -133.09645,1.38579 -265.41733,17.20485 -397.2,34.6 -6.19647,52.66123 11.2203,84.96175 67.15891,63.88684 14.6138,-1.39447 29.2335,-2.72787 43.84109,-4.18684 z"
     id="path48" /></g>
</svg>
